<svg width="128" height="128" viewBox="0 0 128 128" fill="none" xmlns="http://www.w3.org/2000/svg">
  <g fill="#0A0A0A">
    <path d="M64 6L77.8564 14V30L64 38L50.1436 30V14L64 6Z"/>
    <path d="M41 22L54.8564 30V46L41 54L27.1436 46V30L41 22Z"/>
    <path d="M87 22L100.856 30V46L87 54L73.1436 46V30L87 22Z"/>
    <path d="M18 38L31.8564 46V62L18 70L4.14359 62V46L18 38Z"/>
    <path d="M64 38L77.8564 46V62L64 70L50.1436 62V46L64 38Z"/>
    <path d="M110 38L123.856 46V62L110 70L96.1436 62V46L110 38Z"/>
    <path d="M41 54L54.8564 62V78L41 86L27.1436 78V62L41 54Z"/>
    <path d="M87 54L100.856 62V78L87 86L73.1436 78V62L87 54Z"/>
    <path d="M64 74L77.8564 82V98L64 106L50.1436 98V82L64 74Z"/>
  </g>
</svg>
